<?xml version="1.0"?>
<svg xmlns="http://www.w3.org/2000/svg" version="1.1" viewBox="0 0 198 264">
	<path id="Return_s" d="M0 13.2 C0 6.6 6.6 0 13.2 0 L184.8 0 C191.4 0 198 6.6 198 13.2 L198 250.8 C198 257.4 191.4 264 184.8 264 L79.2 264 C72.6 264 66 257.4 66 250.8 L66 145.2 C66 132 66 132 13.2 132 L13.2 132 C6.6 132 0 125.4 0 118.8 L0 13.2" style="fill:url(florence.defs#gradient1)" class="shape" stroke="black" stroke-width="1px" stroke-opacity="0.5"/>
	<path d="M9.9 26.4 C9.9 19.8 16.5 13.2 23.1 13.2 L174.9 13.2 C181.5 13.2 188.1 18.8 188.1 26.4 L188.1 211.2 C188.1 217.8 181.5 224.4 174.9 224.4 L89.1 224.4 C82.5 224.4 75.9 217.8 75.9 211.2 L75.9 105.6 C75.9 92.4 75.9 92.4 23.1 92.4 L23.1 92.4 C16.5 92.4 9.9 85.8 9.9 79.2 L9.9 26.4" style="fill:url(florence.defs#gradient2)" stroke="black" stroke-width="1px" stroke-opacity="0.5"/>
</svg>
