<?xml version="1.0" standalone="no"?>
<!DOCTYPE svg PUBLIC "-//W3C//DTD SVG 1.1//EN" "http://www.w3.org/Graphics/SVG/1.1/DTD/svg11.dtd">
<svg version="1.1" xmlns="http://www.w3.org/2000/svg" xmlns:xlink="http://www.w3.org/1999/xlink">
	<style type="text/css">
		.key {
			fill:white;
		}
		.background {
			fill:black;
		}
	</style>
	<defs>
		<rect id="smallkey" width="2" height="2" class="key"/>
		<rect id="key" width="3" height="2" class="key"/>
		<rect id="largeKey" width="4" height="2" class="key"/>
		<rect id="largestKey" width="6" height="2" class="key"/>
		<path id="returnKey" class="key" d="M1 0 L3 0 L3 5 L0 5 L0 3 L1 3 Z"/>
		<g id="keyboard" transform="scale(2) translate(0.5,0.5)">
			<rect x="-0.5" y="-0.5" width="16" height="15" class="background"/>
			<use xlink:href="#key" x="0" y="0"/><use xlink:href="#key" x="4" y="0"/><use xlink:href="#key" x="8" y="0"/><use xlink:href="#key" x="12" y="0"/>
			<use xlink:href="#largeKey" x="0" y="3"/><use xlink:href="#key" x="5" y="3"/><use xlink:href="#key" x="9" y="3"/><use xlink:href="#returnKey" x="12" y="3"/>
			<use xlink:href="#key" x="0" y="6"/><use xlink:href="#key" x="4" y="6"/><use xlink:href="#key" x="8" y="6"/>
			<use xlink:href="#smallkey" x="0" y="9"/><use xlink:href="#key" x="3" y="9"/><use xlink:href="#key" x="7" y="9"/><use xlink:href="#largeKey" x="11" y="9"/>
			<use xlink:href="#largeKey" x="0" y="12"/><use xlink:href="#largestKey" x="5" y="12"/><use xlink:href="#key" x="12" y="12"/>
		</g>
	</defs>
	<use xlink:href="#keyboard"/>
</svg>
