<?xml version="1.0" encoding="UTF-8" standalone="no"?>
<!-- Created with Inkscape (http://www.inkscape.org/) -->
<svg
   xmlns:dc="http://purl.org/dc/elements/1.1/"
   xmlns:cc="http://web.resource.org/cc/"
   xmlns:rdf="http://www.w3.org/1999/02/22-rdf-syntax-ns#"
   xmlns:svg="http://www.w3.org/2000/svg"
   xmlns="http://www.w3.org/2000/svg"
   xmlns:sodipodi="http://sodipodi.sourceforge.net/DTD/sodipodi-0.dtd"
   xmlns:inkscape="http://www.inkscape.org/namespaces/inkscape"
   width="48px"
   height="48px"
   id="svg2160"
   sodipodi:version="0.32"
   inkscape:version="0.45.1"
   sodipodi:docbase="/home/agrouffff"
   sodipodi:docname="florence.svg"
   inkscape:output_extension="org.inkscape.output.svg.inkscape">
  <defs
     id="defs2162" />
  <sodipodi:namedview
     id="base"
     pagecolor="#ffffff"
     bordercolor="#666666"
     borderopacity="1.0"
     inkscape:pageopacity="0.0"
     inkscape:pageshadow="2"
     inkscape:zoom="7"
     inkscape:cx="24"
     inkscape:cy="24"
     inkscape:current-layer="layer1"
     showgrid="true"
     inkscape:grid-bbox="true"
     inkscape:document-units="px"
     inkscape:window-width="872"
     inkscape:window-height="624"
     inkscape:window-x="12"
     inkscape:window-y="94" />
  <metadata
     id="metadata2165">
    <rdf:RDF>
      <cc:Work
         rdf:about="">
        <dc:format>image/svg+xml</dc:format>
        <dc:type
           rdf:resource="http://purl.org/dc/dcmitype/StillImage" />
      </cc:Work>
    </rdf:RDF>
  </metadata>
  <g
     id="layer1"
     inkscape:label="Layer 1"
     inkscape:groupmode="layer">
    <g
       id="g2203"
       transform="matrix(1.0591782,0,-6.1679848e-3,1.1372733,0.2344345,0.1532872)"
       inkscape:transform-center-x="13.127198"
       inkscape:transform-center-y="-19.374263">
      <path
         transform="translate(-3.2857141,-3.8571429)"
         d="M 11.571428 7.7857141 A 4.1428571 4.0714288 0 1 1  3.2857141,7.7857141 A 4.1428571 4.0714288 0 1 1  11.571428 7.7857141 z"
         sodipodi:ry="4.0714288"
         sodipodi:rx="4.1428571"
         sodipodi:cy="7.7857141"
         sodipodi:cx="7.4285712"
         id="path2170"
         style="fill:#000000"
         sodipodi:type="arc" />
      <path
         transform="translate(5.1571436,-3.8571429)"
         d="M 11.571428 7.7857141 A 4.1428571 4.0714288 0 1 1  3.2857141,7.7857141 A 4.1428571 4.0714288 0 1 1  11.571428 7.7857141 z"
         sodipodi:ry="4.0714288"
         sodipodi:rx="4.1428571"
         sodipodi:cy="7.7857141"
         sodipodi:cx="7.4285712"
         id="path2174"
         style="fill:#000000"
         sodipodi:type="arc" />
      <path
         transform="translate(13.599999,-3.8571429)"
         d="M 11.571428 7.7857141 A 4.1428571 4.0714288 0 1 1  3.2857141,7.7857141 A 4.1428571 4.0714288 0 1 1  11.571428 7.7857141 z"
         sodipodi:ry="4.0714288"
         sodipodi:rx="4.1428571"
         sodipodi:cy="7.7857141"
         sodipodi:cx="7.4285712"
         id="path2176"
         style="fill:#000000"
         sodipodi:type="arc" />
      <path
         transform="translate(22.042857,-3.8571429)"
         d="M 11.571428 7.7857141 A 4.1428571 4.0714288 0 1 1  3.2857141,7.7857141 A 4.1428571 4.0714288 0 1 1  11.571428 7.7857141 z"
         sodipodi:ry="4.0714288"
         sodipodi:rx="4.1428571"
         sodipodi:cy="7.7857141"
         sodipodi:cx="7.4285712"
         id="path2178"
         style="fill:#000000"
         sodipodi:type="arc" />
      <path
         transform="translate(30.485713,-3.8571429)"
         d="M 11.571428 7.7857141 A 4.1428571 4.0714288 0 1 1  3.2857141,7.7857141 A 4.1428571 4.0714288 0 1 1  11.571428 7.7857141 z"
         sodipodi:ry="4.0714288"
         sodipodi:rx="4.1428571"
         sodipodi:cy="7.7857141"
         sodipodi:cx="7.4285712"
         id="path2180"
         style="fill:#000000"
         sodipodi:type="arc" />
      <path
         transform="translate(39.071426,-3.8571429)"
         d="M 11.571428 7.7857141 A 4.1428571 4.0714288 0 1 1  3.2857141,7.7857141 A 4.1428571 4.0714288 0 1 1  11.571428 7.7857141 z"
         sodipodi:ry="4.0714288"
         sodipodi:rx="4.1428571"
         sodipodi:cy="7.7857141"
         sodipodi:cx="7.4285712"
         id="path2182"
         style="fill:#000000"
         sodipodi:type="arc" />
    </g>
    <g
       id="g2259">
      <path
         transform="matrix(1.0591782,0,-6.1679848e-3,1.1372733,9.5567188,5.453789)"
         d="M 11.571428 7.7857141 A 4.1428571 4.0714288 0 1 1  3.2857141,7.7857141 A 4.1428571 4.0714288 0 1 1  11.571428 7.7857141 z"
         sodipodi:ry="4.0714288"
         sodipodi:rx="4.1428571"
         sodipodi:cy="7.7857141"
         sodipodi:cx="7.4285712"
         id="path2186"
         style="fill:#000000"
         sodipodi:type="arc" />
      <path
         transform="matrix(1.0591782,0,-6.1679848e-3,1.1372733,18.605128,5.453789)"
         d="M 11.571428 7.7857141 A 4.1428571 4.0714288 0 1 1  3.2857141,7.7857141 A 4.1428571 4.0714288 0 1 1  11.571428 7.7857141 z"
         sodipodi:ry="4.0714288"
         sodipodi:rx="4.1428571"
         sodipodi:cy="7.7857141"
         sodipodi:cx="7.4285712"
         id="path2188"
         style="fill:#000000"
         sodipodi:type="arc" />
      <path
         sodipodi:type="arc"
         style="fill:#000000"
         id="path2196"
         sodipodi:cx="7.4285712"
         sodipodi:cy="7.7857141"
         sodipodi:rx="4.1428571"
         sodipodi:ry="4.0714288"
         d="M 11.571428 7.7857141 A 4.1428571 4.0714288 0 1 1  3.2857141,7.7857141 A 4.1428571 4.0714288 0 1 1  11.571428 7.7857141 z"
         transform="matrix(1.5157205,0,-6.1679848e-3,1.1372733,-4.7745372,5.453789)" />
      <path
         sodipodi:type="arc"
         style="fill:#000000"
         id="path2204"
         sodipodi:cx="7.4285712"
         sodipodi:cy="7.7857141"
         sodipodi:rx="4.1428571"
         sodipodi:ry="4.0714288"
         d="M 11.571428 7.7857141 A 4.1428571 4.0714288 0 1 1  3.2857141,7.7857141 A 4.1428571 4.0714288 0 1 1  11.571428 7.7857141 z"
         transform="matrix(1.0591782,0,-6.1679848e-3,1.1372733,27.653537,5.453789)" />
      <path
         sodipodi:type="arc"
         style="fill:#000000"
         id="path2206"
         sodipodi:cx="7.4285712"
         sodipodi:cy="7.7857141"
         sodipodi:rx="4.1428571"
         sodipodi:ry="4.0714288"
         d="M 11.571428 7.7857141 A 4.1428571 4.0714288 0 1 1  3.2857141,7.7857141 A 4.1428571 4.0714288 0 1 1  11.571428 7.7857141 z"
         transform="matrix(1.0591782,0,-6.1679848e-3,1.1372733,36.701946,5.453789)" />
    </g>
    <g
       id="g2219"
       transform="matrix(1.0591782,0,-6.1679848e-3,1.1372733,0.2320116,0.6000723)"
       inkscape:transform-center-x="13.557573">
      <path
         transform="translate(12.828572,12.785715)"
         d="M 11.571428 7.7857141 A 4.1428571 4.0714288 0 1 1  3.2857141,7.7857141 A 4.1428571 4.0714288 0 1 1  11.571428 7.7857141 z"
         sodipodi:ry="4.0714288"
         sodipodi:rx="4.1428571"
         sodipodi:cy="7.7857141"
         sodipodi:cx="7.4285712"
         id="path2171"
         style="fill:#000000"
         sodipodi:type="arc" />
      <path
         transform="translate(21.37143,12.785715)"
         d="M 11.571428 7.7857141 A 4.1428571 4.0714288 0 1 1  3.2857141,7.7857141 A 4.1428571 4.0714288 0 1 1  11.571428 7.7857141 z"
         sodipodi:ry="4.0714288"
         sodipodi:rx="4.1428571"
         sodipodi:cy="7.7857141"
         sodipodi:cx="7.4285712"
         id="path2173"
         style="fill:#000000"
         sodipodi:type="arc" />
      <path
         sodipodi:type="arc"
         style="fill:#000000"
         id="path2175"
         sodipodi:cx="7.4285712"
         sodipodi:cy="7.7857141"
         sodipodi:rx="4.1428571"
         sodipodi:ry="4.0714288"
         d="M 11.571428 7.7857141 A 4.1428571 4.0714288 0 1 1  3.2857141,7.7857141 A 4.1428571 4.0714288 0 1 1  11.571428 7.7857141 z"
         transform="matrix(1.8965517,0,0,1,-6.2315269,12.785715)" />
      <path
         sodipodi:type="arc"
         style="fill:#000000"
         id="path2177"
         sodipodi:cx="7.4285712"
         sodipodi:cy="7.7857141"
         sodipodi:rx="4.1428571"
         sodipodi:ry="4.0714288"
         d="M 11.571428 7.7857141 A 4.1428571 4.0714288 0 1 1  3.2857141,7.7857141 A 4.1428571 4.0714288 0 1 1  11.571428 7.7857141 z"
         transform="translate(29.914288,12.785715)" />
      <path
         sodipodi:type="arc"
         style="fill:#000000"
         id="path2179"
         sodipodi:cx="7.4285712"
         sodipodi:cy="7.7857141"
         sodipodi:rx="4.1428571"
         sodipodi:ry="4.0714288"
         d="M 11.571428 7.7857141 A 4.1428571 4.0714288 0 1 1  3.2857141,7.7857141 A 4.1428571 4.0714288 0 1 1  11.571428 7.7857141 z"
         transform="translate(38.457146,12.785715)" />
    </g>
    <g
       id="g2266">
      <path
         transform="matrix(1.0591782,0,-6.1679848e-3,1.1372733,9.4516424,24.828056)"
         d="M 11.571428 7.7857141 A 4.1428571 4.0714288 0 1 1  3.2857141,7.7857141 A 4.1428571 4.0714288 0 1 1  11.571428 7.7857141 z"
         sodipodi:ry="4.0714288"
         sodipodi:rx="4.1428571"
         sodipodi:cy="7.7857141"
         sodipodi:cx="7.4285712"
         id="path2183"
         style="fill:#000000"
         sodipodi:type="arc" />
      <path
         transform="matrix(1.0591782,0,-6.1679848e-3,1.1372733,18.500051,24.828056)"
         d="M 11.571428 7.7857141 A 4.1428571 4.0714288 0 1 1  3.2857141,7.7857141 A 4.1428571 4.0714288 0 1 1  11.571428 7.7857141 z"
         sodipodi:ry="4.0714288"
         sodipodi:rx="4.1428571"
         sodipodi:cy="7.7857141"
         sodipodi:cx="7.4285712"
         id="path2185"
         style="fill:#000000"
         sodipodi:type="arc" />
      <path
         sodipodi:type="arc"
         style="fill:#000000"
         id="path2187"
         sodipodi:cx="7.4285712"
         sodipodi:cy="7.7857141"
         sodipodi:rx="4.1428571"
         sodipodi:ry="4.0714288"
         d="M 11.571428 7.7857141 A 4.1428571 4.0714288 0 1 1  3.2857141,7.7857141 A 4.1428571 4.0714288 0 1 1  11.571428 7.7857141 z"
         transform="matrix(1.5157205,0,-6.1679848e-3,1.1372733,-4.8796132,24.828056)" />
      <path
         sodipodi:type="arc"
         style="fill:#000000"
         id="path2189"
         sodipodi:cx="7.4285712"
         sodipodi:cy="7.7857141"
         sodipodi:rx="4.1428571"
         sodipodi:ry="4.0714288"
         d="M 11.571428 7.7857141 A 4.1428571 4.0714288 0 1 1  3.2857141,7.7857141 A 4.1428571 4.0714288 0 1 1  11.571428 7.7857141 z"
         transform="matrix(1.0591782,0,-6.1679848e-3,1.1372733,27.54846,24.828056)" />
      <path
         sodipodi:type="arc"
         style="fill:#000000"
         id="path2191"
         sodipodi:cx="7.4285712"
         sodipodi:cy="7.7857141"
         sodipodi:rx="4.1428571"
         sodipodi:ry="4.0714288"
         d="M 11.571428 7.7857141 A 4.1428571 4.0714288 0 1 1  3.2857141,7.7857141 A 4.1428571 4.0714288 0 1 1  11.571428 7.7857141 z"
         transform="matrix(1.0591782,0,-6.1679848e-3,1.1372733,36.596869,24.828056)" />
    </g>
    <g
       id="g2234"
       transform="matrix(1.0591782,0,-6.1679848e-3,1.1372733,0.2344346,0.1532872)"
       inkscape:transform-center-x="0.097633385"
       inkscape:transform-center-y="19.374264">
      <path
         sodipodi:type="arc"
         style="fill:#000000"
         id="path2195"
         sodipodi:cx="7.4285712"
         sodipodi:cy="7.7857141"
         sodipodi:rx="4.1428571"
         sodipodi:ry="4.0714288"
         d="M 11.571428 7.7857141 A 4.1428571 4.0714288 0 1 1  3.2857141,7.7857141 A 4.1428571 4.0714288 0 1 1  11.571428 7.7857141 z"
         transform="matrix(1.4310345,0,0,1,-4.7019703,30.214286)" />
      <path
         sodipodi:type="arc"
         style="fill:#000000"
         id="path2197"
         sodipodi:cx="7.4285712"
         sodipodi:cy="7.7857141"
         sodipodi:rx="4.1428571"
         sodipodi:ry="4.0714288"
         d="M 11.571428 7.7857141 A 4.1428571 4.0714288 0 1 1  3.2857141,7.7857141 A 4.1428571 4.0714288 0 1 1  11.571428 7.7857141 z"
         transform="matrix(1.4310345,0,0,1,7.5599373,30.214286)" />
      <path
         sodipodi:type="arc"
         style="fill:#000000"
         id="path2199"
         sodipodi:cx="7.4285712"
         sodipodi:cy="7.7857141"
         sodipodi:rx="4.1428571"
         sodipodi:ry="4.0714288"
         d="M 11.571428 7.7857141 A 4.1428571 4.0714288 0 1 1  3.2857141,7.7857141 A 4.1428571 4.0714288 0 1 1  11.571428 7.7857141 z"
         transform="matrix(1.4310345,0,0,1,19.821845,30.214286)" />
      <path
         sodipodi:type="arc"
         style="fill:#000000"
         id="path2201"
         sodipodi:cx="7.4285712"
         sodipodi:cy="7.7857141"
         sodipodi:rx="4.1428571"
         sodipodi:ry="4.0714288"
         d="M 11.571428 7.7857141 A 4.1428571 4.0714288 0 1 1  3.2857141,7.7857141 A 4.1428571 4.0714288 0 1 1  11.571428 7.7857141 z"
         transform="matrix(4.6896552,0,0,1,21.376858,30.214286)" />
    </g>
  </g>
</svg>
